<svg width="96" height="77" viewBox="0 0 96 77" fill="none" xmlns="http://www.w3.org/2000/svg">
<path d="M76.1471 34.4307C69.0533 42.6212 56.0555 45.399 45.1157 41.9904C41.9834 40.9408 38.897 39.8221 35.9751 38.3833C33.2912 37.2346 30.4422 36.373 27.9012 34.9812C25.0633 33.4727 22.2368 31.6355 18.7899 31.4513C13.2416 31.427 8.45332 35.127 5.53867 38.9485C4.03735 40.382 5.9148 43.5855 7.87774 41.6632C9.79274 39.1466 13.1674 37.797 16.2216 36.4922C19.3224 35.3128 22.7221 36.2451 25.4747 37.6759C32.1255 41.2762 38.8375 45.9281 47.0216 46.0661C54.5435 45.7826 62.8403 47.1434 69.5704 43.4895C74.4962 40.9183 79.3731 37.3998 81.5637 32.6775C81.9629 31.413 82.7606 29.295 80.9026 28.6569C78.6451 28.1981 78.9081 32.241 76.1471 34.4307Z" fill="#FFA800"/>
<g clip-path="url(#clip0_2102_144)">
<path d="M58.9314 56.2246C59.6648 57.142 60.0941 58.2514 60.0941 59.4468C60.0941 60.6423 59.6648 61.7516 58.9314 62.6691H58.93C57.7288 64.1731 55.7088 65.16 53.4192 65.16C51.1295 65.16 49.1095 64.1731 47.9084 62.6691C47.175 61.7517 46.7456 60.6423 46.7456 59.4468C46.7456 58.2514 47.175 57.1421 47.9084 56.2246C49.1096 54.7206 51.1296 53.7349 53.4192 53.7349C55.7089 53.7349 57.7289 54.7206 58.93 56.2246H58.9314Z" fill="#4D4D4D"/>
<path d="M61.385 69.1118C63.4421 69.133 65.1016 70.5675 65.1016 72.3328C65.1016 73.2232 64.6805 74.0276 63.9994 74.6105C63.3169 75.1935 62.3757 75.5539 61.3368 75.5539H45.5018C43.424 75.5539 41.7385 74.1124 41.7385 72.3329C41.7385 71.4425 42.1596 70.637 42.8407 70.054C43.5108 69.4805 44.4341 69.1224 45.4538 69.1118H61.385Z" fill="#F7B239"/>
<path d="M70.1088 65.89C70.1088 66.7804 69.6878 67.5848 69.0067 68.1678C68.3242 68.7507 67.383 69.1123 66.3441 69.1123H61.385C61.3685 69.1111 61.3533 69.1111 61.3368 69.1111H45.5019C45.4854 69.1111 45.4702 69.1111 45.4537 69.1123H40.496C38.4168 69.1123 36.7312 67.6696 36.7312 65.89C36.7312 64.9997 37.1523 64.1953 37.8348 63.6123C38.5159 63.0293 39.4571 62.6689 40.496 62.6689H47.9085C49.1098 64.1729 51.1297 65.1598 53.4193 65.1598C55.709 65.1598 57.729 64.1729 58.9302 62.6689H58.9315H66.3441C68.4232 62.6689 70.1088 64.1116 70.1088 65.89Z" fill="#F7B239"/>
<path d="M40.4959 56.2241H47.9084C47.1751 57.1415 46.7457 58.251 46.7457 59.4464C46.7457 60.6418 47.1751 61.7511 47.9084 62.6686H40.4959H37.265C35.1858 62.6686 33.5002 61.2248 33.5002 59.4464C33.5002 58.556 33.9227 57.7516 34.6024 57.1686C35.2849 56.5857 36.2248 56.2241 37.265 56.2241H40.4959Z" fill="#F7B239"/>
<path d="M73.3384 59.4464C73.3384 60.3367 72.9173 61.1411 72.2362 61.7241C71.5551 62.3071 70.6139 62.6686 69.5736 62.6686H66.3442H58.9316C59.665 61.7512 60.0944 60.6418 60.0944 59.4464C60.0944 58.251 59.665 57.1416 58.9316 56.2241H66.3442H69.5736C71.6541 56.2241 73.3384 57.6668 73.3384 59.4464Z" fill="#F7B239"/>
<path d="M70.1088 53.0034C70.1088 53.8938 69.6878 54.6994 69.0067 55.2812C68.3242 55.8653 67.383 56.2245 66.3441 56.2245H58.9315H58.9302C57.7289 54.7206 55.7089 53.7348 53.4193 53.7348C51.1296 53.7348 49.1097 54.7206 47.9085 56.2245H40.496C38.4168 56.2245 36.7312 54.7842 36.7312 53.0035C36.7312 52.1132 37.1523 51.3088 37.8348 50.727C38.5159 50.1429 39.4571 49.7837 40.496 49.7837H66.3441C68.4232 49.7835 70.1088 51.2239 70.1088 53.0034Z" fill="#F7B239"/>
<path d="M61.3368 43.339C63.416 43.339 65.1016 44.7817 65.1016 46.56C65.1016 47.4503 64.6805 48.2559 63.9994 48.8389C63.3169 49.4218 62.3757 49.7822 61.3368 49.7822H45.5018C43.424 49.7822 41.7385 48.3395 41.7385 46.56C41.7385 45.6708 42.1596 44.8652 42.8407 44.2822C43.5218 43.6993 44.463 43.3389 45.5019 43.3389H61.3368V43.339Z" fill="#F7B239"/>
<path d="M46.2793 46.5604C46.2793 45.6713 46.7004 44.8657 47.3815 44.2827C48.0626 43.6997 49.0038 43.3394 50.0427 43.3394H45.5019C44.463 43.3394 43.5218 43.6997 42.8407 44.2827C42.1596 44.8657 41.7385 45.6713 41.7385 46.5604C41.7385 48.34 43.4241 49.7827 45.5018 49.7827H50.0426C47.9649 49.7825 46.2793 48.3398 46.2793 46.5604Z" fill="#E09B2D"/>
<path d="M41.272 53.0038C41.272 52.1146 41.693 51.309 42.3742 50.7261C43.0553 50.1431 43.9965 49.7827 45.0354 49.7827H40.4946C39.4557 49.7827 38.5145 50.1431 37.8334 50.7261C37.1523 51.309 36.7312 52.1146 36.7312 53.0038C36.7312 54.7834 38.4168 56.2261 40.4945 56.2261H45.0353C42.9576 56.2259 41.272 54.7832 41.272 53.0038Z" fill="#E09B2D"/>
<path d="M38.041 59.4472C38.041 58.558 38.4621 57.7524 39.1432 57.1694C39.8243 56.5865 40.7655 56.2261 41.8044 56.2261H37.2637C36.2248 56.2261 35.2836 56.5865 34.6024 57.1694C33.9213 57.7524 33.5002 58.558 33.5002 59.4472C33.5002 61.2267 35.1858 62.6694 37.2636 62.6694H41.8043C39.7266 62.6692 38.041 61.2265 38.041 59.4472Z" fill="#E09B2D"/>
<path d="M41.272 65.89C41.272 65.0008 41.693 64.1953 42.3742 63.6123C43.0553 63.0293 43.9965 62.6689 45.0354 62.6689H40.4946C39.4557 62.6689 38.5145 63.0293 37.8334 63.6123C37.1523 64.1953 36.7312 65.0008 36.7312 65.89C36.7312 67.6696 38.4168 69.1123 40.4945 69.1123H45.0353C42.9576 69.1121 41.272 67.6694 41.272 65.89Z" fill="#E09B2D"/>
<path d="M46.2793 72.3334C46.2793 71.4442 46.7004 70.6386 47.3815 70.0557C48.0626 69.4727 49.0038 69.1123 50.0427 69.1123H45.5019C44.463 69.1123 43.5218 69.4727 42.8407 70.0557C42.1596 70.6386 41.7385 71.4442 41.7385 72.3334C41.7385 74.1129 43.4241 75.5556 45.5018 75.5556H50.0426C47.9649 75.5555 46.2793 74.1128 46.2793 72.3334Z" fill="#E09B2D"/>
<path d="M61.759 47.3237C62.329 47.3237 62.791 46.9282 62.791 46.4404C62.791 45.9526 62.329 45.5571 61.759 45.5571C61.1891 45.5571 60.7271 45.9526 60.7271 46.4404C60.7271 46.9282 61.1891 47.3237 61.759 47.3237Z" fill="white"/>
<path d="M66.5063 53.8305C67.0763 53.8305 67.5383 53.435 67.5383 52.9472C67.5383 52.4594 67.0763 52.064 66.5063 52.064C65.9364 52.064 65.4744 52.4594 65.4744 52.9472C65.4744 53.435 65.9364 53.8305 66.5063 53.8305Z" fill="white"/>
<path d="M70.0151 60.3373C70.5851 60.3373 71.0471 59.9419 71.0471 59.4541C71.0471 58.9663 70.5851 58.5708 70.0151 58.5708C69.4452 58.5708 68.9832 58.9663 68.9832 59.4541C68.9832 59.9419 69.4452 60.3373 70.0151 60.3373Z" fill="white"/>
<path d="M66.5063 66.8442C67.0763 66.8442 67.5383 66.4487 67.5383 65.9609C67.5383 65.4731 67.0763 65.0776 66.5063 65.0776C65.9364 65.0776 65.4744 65.4731 65.4744 65.9609C65.4744 66.4487 65.9364 66.8442 66.5063 66.8442Z" fill="white"/>
<path d="M74.384 76.4404C74.954 76.4404 75.416 76.0449 75.416 75.5571C75.416 75.0693 74.954 74.6738 74.384 74.6738C73.8141 74.6738 73.3521 75.0693 73.3521 75.5571C73.3521 76.0449 73.8141 76.4404 74.384 76.4404Z" fill="#E09B2D"/>
<path d="M73.352 45.1733C73.922 45.1733 74.384 44.7778 74.384 44.29C74.384 43.8022 73.922 43.4067 73.352 43.4067C72.7821 43.4067 72.3201 43.8022 72.3201 44.29C72.3201 44.7778 72.7821 45.1733 73.352 45.1733Z" fill="#E09B2D"/>
<path d="M30.217 48.7065C30.787 48.7065 31.249 48.311 31.249 47.8232C31.249 47.3354 30.787 46.9399 30.217 46.9399C29.6471 46.9399 29.1851 47.3354 29.1851 47.8232C29.1851 48.311 29.6471 48.7065 30.217 48.7065Z" fill="#E09B2D"/>
<path d="M28.9788 62.8378C29.5487 62.8378 30.0107 62.4424 30.0107 61.9546C30.0107 61.4667 29.5487 61.0713 28.9788 61.0713C28.4088 61.0713 27.9468 61.4667 27.9468 61.9546C27.9468 62.4424 28.4088 62.8378 28.9788 62.8378Z" fill="#E09B2D"/>
<path d="M74.3701 59.4464C74.3701 57.3803 72.5769 55.6665 70.2527 55.3833C70.829 54.6938 71.1409 53.8696 71.1409 53.003C71.1409 50.7404 68.9892 48.8995 66.3447 48.8995H65.275C65.8152 48.2352 66.1331 47.4294 66.1331 46.5606C66.1331 44.2971 63.9816 42.4558 61.3372 42.4558H54.4519V39.6469C58.5445 39.9231 62.333 40.02 65.6225 40.02C66.5049 40.02 67.3521 40.0131 68.1595 40.0008C68.7295 39.9921 69.183 39.5898 69.1731 39.102C69.163 38.6142 68.6896 38.2252 68.1229 38.2345C66.3498 38.2613 64.6284 38.259 62.9568 38.2329L64.5318 36.5619C64.8896 36.1822 64.8201 35.6261 64.3764 35.3199C63.9324 35.0135 63.2832 35.073 62.9252 35.4527L60.3623 38.1722C58.3065 38.1075 56.336 38.0064 54.4522 37.8765V37.2239C54.4522 36.7361 53.9903 36.3406 53.4202 36.3406C52.8502 36.3406 52.3883 36.7361 52.3883 37.2239V37.7202C44.9723 37.1077 39.0289 36.0652 34.773 35.1158C34.2344 34.9957 33.7158 34.8751 33.2133 34.7549L38.0641 33.5213C38.6105 33.3823 38.9218 32.8906 38.7595 32.4229C38.5972 31.9554 38.0226 31.6892 37.4764 31.8278L29.6269 33.8241C25.431 32.644 23.2161 31.6801 23.1867 31.6671C22.6801 31.4438 22.0582 31.6138 21.7969 32.0473C21.5357 32.4808 21.7343 33.0136 22.2408 33.2372C22.4092 33.3117 26.4545 35.0794 34.1666 36.8061C35.2513 37.0491 36.3354 37.2745 37.4164 37.4839L39.7881 40.3006C39.9899 40.5401 40.3057 40.6674 40.6262 40.6674C40.8353 40.6674 41.0463 40.6132 41.2287 40.5006C41.691 40.2154 41.7957 39.6633 41.4625 39.2676L40.4162 38.025C44.5371 38.7173 48.5754 39.186 52.388 39.4938V42.4555H45.5026C42.858 42.4555 40.7067 44.2969 40.7067 46.5603C40.7067 47.4291 41.0246 48.2351 41.5647 48.8992H40.4961C39.2148 48.8992 38.0105 49.3261 37.1057 50.1005C36.1993 50.8743 35.7 51.9049 35.7 53.0027C35.7 53.8892 36.031 54.7101 36.5914 55.3817C35.5675 55.5044 34.6204 55.9058 33.8725 56.5442C32.9674 57.321 32.4689 58.3516 32.4689 59.446C32.4689 61.513 34.2633 63.2272 36.5885 63.5095C36.0121 64.1997 35.7 65.0238 35.7 65.8894C35.7 68.1529 37.8515 69.9943 40.496 69.9943H41.5639C41.0243 70.6583 40.7067 71.464 40.7067 72.3324C40.7067 74.5959 42.8582 76.4372 45.5026 76.4372H61.3372C63.9817 76.4372 66.1331 74.5958 66.1331 72.3324C66.1331 71.464 65.8155 70.6584 65.2759 69.9943H66.3448C67.6238 69.9943 68.8279 69.5676 69.736 68.7921C70.642 68.0168 71.1409 66.9859 71.1409 65.8893C71.1409 65.0028 70.8098 64.1819 70.2493 63.5101C71.2743 63.3873 72.2208 62.9859 72.9655 62.3486C73.8713 61.5738 74.3701 60.543 74.3701 59.4464ZM45.5024 44.2222H61.337C62.8434 44.2222 64.0688 45.2712 64.0688 46.5604C64.0688 47.8497 62.8433 48.8987 61.337 48.8987H45.5024C43.9959 48.8987 42.7704 47.8498 42.7704 46.5604C42.7704 45.271 43.9959 44.2222 45.5024 44.2222ZM38.5639 51.3509C39.0797 50.9092 39.7658 50.6661 40.4958 50.6661H66.3445C67.851 50.6661 69.0766 51.7144 69.0766 53.003C69.0766 53.6288 68.7927 54.2158 68.2764 54.6566C67.7605 55.0983 67.0745 55.3415 66.3445 55.3415H59.4446C58.0314 53.8253 55.8567 52.8511 53.4196 52.8511C50.9826 52.8511 48.8078 53.8253 47.3946 55.3415H40.4956C38.9892 55.3415 37.7636 54.2925 37.7636 53.003C37.7638 52.378 38.0474 51.7916 38.5639 51.3509ZM53.4197 64.2759C50.3086 64.2759 47.7775 62.1094 47.7775 59.4468C47.7775 56.7842 50.3087 54.6177 53.4197 54.6177C56.5308 54.6177 59.0619 56.7842 59.0619 59.4468C59.0619 62.1094 56.5307 64.2759 53.4197 64.2759ZM34.5324 59.4464C34.5324 58.823 34.8169 58.2354 35.3316 57.7937C35.8497 57.3516 36.5362 57.1081 37.2646 57.1081H46.2156C45.8922 57.8354 45.7135 58.6235 45.7135 59.4468C45.7135 60.2699 45.8922 61.0577 46.2155 61.7851H37.2648C35.7581 61.7849 34.5324 60.7359 34.5324 59.4464ZM64.0689 72.333C64.0689 73.6223 62.8434 74.6712 61.3371 74.6712H45.5024C43.9959 74.6712 42.7704 73.6222 42.7704 72.333C42.7704 71.0448 43.9938 69.9968 45.4985 69.9949H61.3411C62.8455 69.9967 64.0689 71.0448 64.0689 72.333ZM68.2774 67.5426C67.7595 67.9847 67.0731 68.2282 66.3446 68.2282H40.4957C38.9893 68.2282 37.7637 67.1793 37.7637 65.8899C37.7637 65.2651 38.0478 64.6779 38.563 64.2371C39.0809 63.7949 39.7673 63.5514 40.4958 63.5514H47.3942C48.8074 65.0679 50.9824 66.0424 53.4197 66.0424C55.8571 66.0424 58.032 65.068 59.4451 63.5514H66.3447C67.8512 63.5514 69.0768 64.6004 69.0768 65.8898C69.0767 66.5145 68.7926 67.1017 68.2774 67.5426ZM71.5058 61.1001C70.99 61.5417 70.3039 61.7849 69.5739 61.7849H60.6238C60.9471 61.0577 61.1258 60.2699 61.1258 59.4466C61.1258 58.6233 60.9471 57.8353 60.6237 57.1079H69.5741C71.0805 57.1079 72.3062 58.1569 72.3062 59.4463C72.306 60.0711 72.0218 60.6584 71.5058 61.1001Z" fill="#333333"/>
</g>
<path d="M1.52573 15.7084L15.7002 8.49577L23.284 26.7815L21.0131 27.937L14.0729 11.2031L7.60953 14.492C7.06052 14.7714 6.76719 15.1086 6.72955 15.5036C6.6919 15.8986 6.79107 16.3806 7.02706 16.9496L13.2272 31.8989L11.0311 33.0163L4.89538 18.2222C4.57358 17.4463 4.17954 16.9578 3.71327 16.7565C3.25648 16.5296 2.71199 16.5769 2.0798 16.8986C1.89679 16.9917 1.73035 17.0033 1.58047 16.9334C1.4306 16.8635 1.32348 16.751 1.25912 16.5958C1.18527 16.4663 1.16965 16.3072 1.21226 16.1185C1.27151 15.9213 1.376 15.7846 1.52573 15.7084Z" fill="black"/>
<path d="M21.1867 15.0647L20.1901 10.2958C20.0947 9.83896 19.9674 9.4577 19.8082 9.15199C19.6633 8.82336 19.4143 8.58882 19.0611 8.44837C18.8973 8.3941 18.6922 8.36969 18.4457 8.37514C18.1992 8.38059 17.9946 8.40417 17.8318 8.4459C17.5968 8.50616 17.3935 8.49089 17.2221 8.40007C17.065 8.28635 16.9674 8.13812 16.9292 7.9554C16.8948 7.79096 16.9295 7.63769 17.0331 7.49561C17.1549 7.34889 17.3062 7.25235 17.487 7.20599L20.5247 6.42716C20.9768 6.31127 21.3309 6.36486 21.5871 6.58795C21.8432 6.81103 22.0038 7.07789 22.0687 7.38851L23.5292 14.3775C23.7163 15.2729 24.1659 15.9661 24.8782 16.4573C25.6085 16.9438 26.4981 17.0527 27.5468 16.7838C28.2701 16.5983 28.9138 16.26 29.478 15.7689C30.0421 15.2777 30.4929 14.7001 30.8304 14.0361C31.1717 13.3903 31.4002 12.7061 31.5159 11.9834C31.6459 11.2378 31.6402 10.5269 31.4989 9.85087L30.2618 3.93075L32.6215 3.32576L36.6708 22.7032L34.3111 23.3082L32.4096 14.2087C32.3489 14.6478 32.1779 15.1056 31.8964 15.582C31.615 16.0584 31.2445 16.5192 30.785 16.9642C30.3437 17.4047 29.8185 17.8088 29.2096 18.1767C28.6149 18.5217 27.9649 18.7846 27.2597 18.9654C26.5546 19.1462 25.8678 19.1875 25.1996 19.0893C24.5494 18.9864 23.9506 18.7646 23.4031 18.4237C22.8556 18.0828 22.3885 17.625 22.0017 17.0504C21.6149 16.4758 21.3432 15.8139 21.1867 15.0647Z" fill="black"/>
<path d="M34.1309 22.5121L39.282 6.33818C39.3306 6.16734 39.3711 6.02498 39.4035 5.91109C39.4351 5.77855 39.4671 5.65533 39.4995 5.54144C39.5319 5.42755 39.5549 5.31416 39.5687 5.20127C39.6003 5.06873 39.6221 4.92737 39.6342 4.77718C39.6269 4.60934 39.5929 4.47097 39.532 4.36207C39.4704 4.23452 39.3715 4.10897 39.2353 3.98542C39.0822 3.90016 38.8925 3.83555 38.6664 3.79159C38.4403 3.74762 38.2247 3.73113 38.0196 3.74211C37.8146 3.7531 37.644 3.69681 37.5078 3.57326C37.3708 3.43106 37.2982 3.26671 37.2901 3.08022C37.265 2.93203 37.3152 2.79849 37.4408 2.67961C37.5842 2.54108 37.7398 2.46732 37.9075 2.45834L42.8285 2.19474L51.1305 21.6015L48.2786 21.7542L45.5919 15.4212L38.4621 15.8031L36.3677 22.3923L34.1309 22.5121ZM41.5272 5.76929L39.0052 14.1197L44.9607 13.8007L41.5272 5.76929Z" fill="black"/>
<path d="M65.5166 3.83734L63.0544 23.4796L60.619 23.1051L62.8723 5.12975L59.3576 4.58921C58.5274 4.46152 57.9714 4.54593 57.6898 4.84244C57.4081 5.13894 57.2104 5.74097 57.0967 6.64854L55.7733 17.2059C55.7176 17.6504 55.6237 18.1741 55.4917 18.7768C55.3782 19.3823 55.1298 19.9388 54.7465 20.4462C54.3609 20.9721 53.8024 21.3771 53.071 21.661C52.3396 21.945 51.3282 21.9877 50.0367 21.7891C48.8005 21.599 47.8449 21.1216 47.1697 20.357C46.4945 19.5924 46.1471 18.5384 46.1275 17.195L48.8949 17.6206C48.8694 17.8243 48.8484 18.0665 48.8321 18.3472C48.8364 18.6122 48.8881 18.875 48.9871 19.1356C49.0861 19.3963 49.2542 19.6298 49.4916 19.8362C49.729 20.0427 50.0784 20.1813 50.5396 20.2523C51.0931 20.3374 51.5314 20.2915 51.8544 20.1147C52.1983 19.9221 52.4591 19.6413 52.637 19.2722C52.8334 18.906 52.9733 18.4649 53.0568 17.9492C53.161 17.4177 53.2502 16.8556 53.3245 16.2629L54.6375 5.78892C54.7327 5.02953 54.6732 4.45401 54.459 4.06238C54.2471 3.65222 53.8183 3.39748 53.1726 3.29817C52.9328 3.26128 52.7564 3.16808 52.6435 3.01857C52.5514 2.85337 52.5157 2.68742 52.5366 2.52073C52.5368 2.36972 52.6015 2.22864 52.7307 2.09749C52.8785 1.96917 53.0353 1.91779 53.2014 1.94332L65.5166 3.83734Z" fill="black"/>
<path d="M74.4717 27.5488L72.1358 26.6805L76.8365 11.165C77.0476 10.4683 77.1102 10.0046 77.0243 9.77387C76.9614 9.53183 76.7543 9.31573 76.4031 9.12555C76.3156 9.09304 76.1669 9.03775 75.957 8.95971C75.7524 8.8638 75.5304 8.76138 75.2908 8.65247C75.0458 8.56141 74.8009 8.47036 74.5559 8.37931C74.3339 8.27689 74.1616 8.20292 74.0391 8.1574C72.821 7.74437 71.7842 7.69686 70.9286 8.01489C70.0784 8.31505 69.4585 9.10826 69.0688 10.3945C68.8523 11.1091 68.7787 11.7377 68.8479 12.2802C68.9172 12.8227 69.0747 13.2987 69.3205 13.7081C69.5839 14.124 69.8951 14.4782 70.2543 14.7707C70.6188 15.0454 70.9969 15.2754 71.3885 15.4607C71.6576 15.6005 72.0196 15.7549 72.4746 15.924C72.9295 16.0931 73.3144 16.2362 73.6294 16.3533C73.9968 16.4898 74.1924 16.7116 74.2162 17.0186C74.2575 17.3321 74.233 17.5416 74.1426 17.6472C74.0239 17.7819 73.9389 17.8696 73.8877 17.9102C73.8365 17.9508 73.7994 17.9768 73.7765 17.9881L65.1283 24.0758L62.2938 23.0222L70.7802 17.0831C70.7976 17.0896 70.7627 17.0766 70.6752 17.0441C70.5931 16.9937 70.5258 16.9587 70.4733 16.9392C69.698 16.6709 69.0098 16.276 68.4086 15.7543C67.8128 15.2148 67.3343 14.6096 66.973 13.9387C66.5942 13.2612 66.3563 12.5367 66.2591 11.7651C66.1619 10.9936 66.2411 10.218 66.4967 9.43847C66.8864 8.15221 67.452 7.24934 68.1934 6.72986C68.9523 6.21689 69.7856 5.94027 70.6933 5.90001C71.601 5.85976 72.5381 5.9795 73.5046 6.25924C74.494 6.52763 75.4261 6.82441 76.3009 7.1496L80.2115 8.6032L74.4717 27.5488Z" fill="black"/>
<path d="M84.37 14.665L77.235 29.2536L75.0741 27.957L82.16 13.469C82.4962 12.7814 82.6263 12.198 82.5502 11.7185C82.4902 11.2487 82.1884 10.8074 81.645 10.3945C81.4131 10.2337 81.2818 10.0789 81.2509 9.93031C81.2283 9.76491 81.2539 9.60675 81.3277 9.45583C81.3855 9.29531 81.4911 9.18517 81.6446 9.12542C81.814 9.07527 81.9788 9.09822 82.1389 9.19426L87.3969 12.3494C87.765 12.5703 88.2091 12.8476 88.7291 13.1813C89.2651 13.5246 89.7291 13.8247 90.121 14.0816C90.6649 14.4513 91.1636 14.9132 91.6172 15.4674C92.079 16.0048 92.4355 16.6091 92.6869 17.2805C92.93 17.9686 93.04 18.6962 93.0169 19.4631C93.002 20.2133 92.8057 20.9956 92.428 21.8101C92.0672 22.548 91.591 23.1406 90.9994 23.5882C90.4321 24.0286 89.7896 24.3263 89.0719 24.4813C88.3703 24.6459 87.6299 24.6571 86.8506 24.5148C86.0795 24.3558 85.3259 24.0554 84.5896 23.6136L82.3807 22.2882C82.1406 22.1441 81.9935 21.9582 81.9392 21.7304C81.9092 21.4955 81.9434 21.2774 82.0418 21.0762C82.116 20.8822 82.2501 20.7349 82.4442 20.6344C82.6543 20.5436 82.8873 20.575 83.1434 20.7287L85.2082 21.9677C85.5604 22.179 85.9492 22.3364 86.3748 22.4399C86.8003 22.5434 87.2388 22.5571 87.6901 22.4809C88.1172 22.4118 88.5335 22.217 88.9388 21.8962C89.3683 21.5683 89.7471 21.069 90.0751 20.3983C90.6656 19.1909 90.7799 18.1317 90.4181 17.2205C90.0645 16.2926 89.3355 15.4972 88.2311 14.8345C88.103 14.7577 87.9229 14.6604 87.6906 14.5427C87.4825 14.4179 87.2623 14.2966 87.03 14.1789C86.8059 14.0444 86.5938 13.928 86.3935 13.8295C86.1932 13.731 86.0611 13.6625 85.997 13.6241C85.6203 13.4631 85.3349 13.4329 85.1408 13.5333C84.9468 13.6338 84.6898 14.011 84.37 14.665Z" fill="black"/>
<defs>
<clipPath id="clip0_2102_144">
<rect width="53.734" height="45.9907" fill="white" transform="translate(21.6819 31.0093)"/>
</clipPath>
</defs>
</svg>
